<?xml version="1.0" encoding="iso-8859-1"?>
<!-- Generator: Adobe Illustrator 19.0.0, SVG Export Plug-In . SVG Version: 6.00 Build 0)  -->
<svg xmlns="http://www.w3.org/2000/svg" xmlns:xlink="http://www.w3.org/1999/xlink" version="1.1" id="Capa_1" x="0px" y="0px" viewBox="0 0 512.003 512.003" style="enable-background:new 0 0 512.003 512.003;" xml:space="preserve">
<path style="fill:#643C3E;" d="M135.76,360.21c8.016-48.097,32.065-72.145,32.065-120.242h48.097V360.21H135.76z"/>
<path style="fill:#F5AF73;" d="M379.085,354.926l-64.346-22.98c-6.381-2.279-10.64-8.323-10.64-15.098v-36.799h-96.194v36.799  c0,6.775-4.259,12.819-10.64,15.098l-64.345,22.98c-22.333,7.976-37.241,29.13-37.241,52.844v96.73h320.645v-96.731  C416.325,384.055,401.417,362.901,379.085,354.926z"/>
<path style="fill:#F5965F;" d="M207.905,310.719c14.862,6.021,31.074,9.411,48.097,9.411c17.023,0,33.235-3.389,48.097-9.411v-30.67  h-96.194L207.905,310.719L207.905,310.719z"/>
<path style="fill:#FFA000;" d="M379.084,354.925l-59.236-21.155c-2.854,32.778-30.327,58.504-63.845,58.504  s-60.991-25.726-63.845-58.504l-59.237,21.156c-22.333,7.976-37.24,29.129-37.24,52.843V504.5h320.645v-96.731  C416.325,384.055,401.417,362.901,379.084,354.925z"/>
<path style="fill:#F5C882;" d="M368.228,167.823l-8.016-8.016V87.661h-208.42v72.145l-8.016,8.016  c-8.854,0-16.032,7.178-16.032,16.032v7.276c0,7.785,5.219,15.006,12.865,16.469c2.758,0.528,5.423,0.348,7.844-0.39  c2.296-0.699,4.618,0.564,5.037,2.927c8.642,48.83,51.201,85.944,102.512,85.944s93.87-37.114,102.512-85.944  c0.418-2.363,2.741-3.626,5.037-2.927c2.421,0.738,5.086,0.918,7.844,0.39c7.646-1.463,12.866-8.684,12.865-16.469v-7.276  C384.26,175,377.082,167.823,368.228,167.823z"/>
<path style="fill:#F5AF73;" d="M207.905,207.903v-34.845c16.953-9.878,31.378-22.195,42.481-33.402  c3.097-3.126,8.13-3.131,11.222,0.001c18.342,18.573,45.663,40.296,78.796,48.653c10.059,2.537,19.808-5.259,19.808-15.633V95.678  h-208.42v64.129l-8.016,8.016c-8.854,0-16.032,7.178-16.032,16.032v7.267c0,7.789,5.222,15.016,12.872,16.478  c2.759,0.527,5.424,0.345,7.843-0.393c2.293-0.699,4.614,0.562,5.032,2.924c8.638,48.832,51.198,85.949,102.51,85.949  c9.784,0,19.242-1.367,28.215-3.89C247.986,296.081,207.905,255.779,207.905,207.903z"/>
<path style="fill:#6E4848;" d="M256.002,7.5L256.002,7.5c61.981,0,112.226,50.245,112.226,112.226v48.097  c-50.393,0-90.886-44.549-105.921-63.633c-3.229-4.098-9.381-4.098-12.61,0c-15.035,19.084-55.528,63.633-105.921,63.633v-48.097  C143.776,57.745,194.021,7.5,256.002,7.5L256.002,7.5z"/>
<path style="fill:#FFFFFF;" d="M216.729,223.936C220.444,242.23,236.612,256,256.002,256s35.558-13.77,39.272-32.064H216.729z"/>
<circle style="fill:#FF6991;" cx="143.781" cy="247.98" r="16.03"/>
<path style="fill:#643C3E;" d="M207.905,119.726c0-50.83,33.816-93.713,80.161-107.517C277.9,9.181,267.152,7.5,256.002,7.5  c-61.981,0-112.226,50.245-112.226,112.226v48.097c24.265,0,46.192-10.357,64.129-23.198V119.726z"/>
<circle style="fill:#FF6991;" cx="368.231" cy="247.98" r="16.03"/>
<path style="fill:#FF8A00;" d="M256.002,392.274c-33.519,0-60.991-25.726-63.845-58.504l-59.237,21.156  c-22.333,7.976-37.24,29.129-37.24,52.843v72.683c95.536-20.661,154.571-61.105,189.252-95.128  C276.232,389.734,266.423,392.274,256.002,392.274z"/>
<path style="fill:#E66E00;" d="M282.565,386.45c-8.099,3.701-17.072,5.824-26.563,5.824c-33.519,0-60.991-25.726-63.845-58.504  l-30.815,11.005c6.895,39.484,37.796,70.711,77.141,77.963C256.602,410.494,271.11,398.011,282.565,386.45z"/>
<path d="M207.905,191.355c4.142,0,7.5-3.358,7.5-7.5v-8.016c0-4.142-3.358-7.5-7.5-7.5s-7.5,3.358-7.5,7.5v8.016  C200.405,187.997,203.763,191.355,207.905,191.355z"/>
<path d="M256.082,159.291c4.142,0,7.5-3.358,7.5-7.5s-3.358-7.5-7.5-7.5h-0.08c-4.142,0-7.46,3.358-7.46,7.5  S251.94,159.291,256.082,159.291z"/>
<path d="M304.099,191.355c4.142,0,7.5-3.358,7.5-7.5v-8.016c0-4.142-3.358-7.5-7.5-7.5s-7.5,3.358-7.5,7.5v8.016  C296.599,187.997,299.957,191.355,304.099,191.355z"/>
<path d="M210.922,219.189c-1.424,1.743-1.991,4.033-1.543,6.239c4.479,22.061,24.087,38.072,46.623,38.072  c22.536,0,42.144-16.012,46.623-38.072c0.448-2.206-0.119-4.496-1.543-6.239s-3.556-2.753-5.807-2.753h-78.546  C214.478,216.436,212.346,217.446,210.922,219.189z M284.651,231.436c-5.583,10.265-16.494,17.064-28.649,17.064  s-23.065-6.799-28.649-17.064H284.651z"/>
<path d="M381.607,347.863l-64.346-22.98c-3.387-1.209-5.663-4.439-5.663-8.036v-28.178c13.726-7.921,25.654-18.693,34.941-31.553  c3.573,8.453,11.948,14.4,21.688,14.4c12.976,0,23.533-10.557,23.533-23.532s-10.557-23.532-23.533-23.532  c-1.955,0-3.854,0.244-5.672,0.695c1.014-3.251,1.894-6.564,2.612-9.941c1.009,0.131,2.031,0.198,3.06,0.198  c12.976,0,23.533-10.557,23.533-23.532v-8.016c0-10.354-6.724-19.16-16.033-22.3v-41.83C375.728,53.708,322.019,0,256.002,0  S136.276,53.708,136.276,119.726v41.83c-9.308,3.139-16.033,11.946-16.033,22.3v8.016c0,12.976,10.557,23.532,23.533,23.532  c1.029,0,2.051-0.066,3.06-0.198c0.718,3.377,1.598,6.69,2.612,9.941c-1.818-0.452-3.717-0.695-5.672-0.695  c-12.976,0-23.533,10.557-23.533,23.532s10.557,23.532,23.533,23.532c5.77,0,11.059-2.091,15.157-5.551  c-2.341,14.013-7.363,23.925-12.938,34.92c-6.242,12.31-13.277,26.224-17.183,47.579c-24.371,9.446-40.633,33.059-40.633,59.305  v96.73c0,4.142,3.358,7.5,7.5,7.5s7.5-3.358,7.5-7.5v-17.737c89.878-20.063,145.525-58.274,176.506-87.053  c26.924-25.01,40.321-47.131,45.152-56.195l20.012,7.147c-0.467,1.88-5.356,20.712-19.413,44.911  c-13.548,23.323-38.659,56.578-81.347,82.557c-3.539,2.153-4.661,6.768-2.508,10.306c1.412,2.321,3.882,3.602,6.414,3.602  c1.328,0,2.674-0.353,3.892-1.094c45.625-27.767,72.407-63.392,86.839-88.388c13.228-22.909,18.764-41.117,20.306-46.828  l17.49,6.246c-1.719,14.393-12.435,89.072-54.069,137.645c-2.696,3.145-2.332,7.879,0.813,10.575  c1.415,1.212,3.15,1.806,4.877,1.806c2.113,0,4.214-0.889,5.698-2.619c40.525-47.279,53.361-115.167,56.796-139.5  c11.258,9.065,18.188,22.915,18.188,37.889v96.73c0,4.142,3.358,7.5,7.5,7.5s7.5-3.358,7.5-7.5v-96.73  C423.825,380.956,406.859,356.881,381.607,347.863z M376.76,247.984c0,4.705-3.828,8.532-8.533,8.532s-8.532-3.828-8.532-8.532  s3.828-8.532,8.532-8.532C372.933,239.452,376.76,243.279,376.76,247.984z M310.563,338.344  c-4.357,7.783-14.334,23.524-32.418,41.946c-0.034,0.014-0.069,0.023-0.103,0.038c-6.978,2.951-14.393,4.448-22.041,4.448  c-27.461,0-50.623-19.486-55.624-46.004c9.01-3.497,15.027-12.218,15.027-21.924v-20.964c12.637,4.963,26.339,7.698,40.597,7.698  s27.959-2.735,40.597-7.698v20.964C296.599,326.168,302.143,334.593,310.563,338.344z M236.833,414.748  c-16.505-3.633-31.543-11.869-43.585-23.926c-11.442-11.455-19.431-25.612-23.299-41.157l16.174-5.776  c7.214,32.361,35.952,55.886,69.88,55.886c0.274,0,0.544-0.017,0.818-0.02C250.863,404.636,244.207,409.674,236.833,414.748z   M143.776,200.403c-4.705,0-8.533-3.828-8.533-8.532v-8.016c0-4.705,3.828-8.532,8.533-8.532c53.638,0,96.062-46.5,111.813-66.492  c0.05-0.064,0.169-0.215,0.413-0.215c0.244,0,0.363,0.151,0.414,0.216c2.046,2.597,4.209,5.219,6.428,7.794  c2.705,3.138,7.44,3.49,10.578,0.786s3.49-7.439,0.786-10.578c-2.076-2.409-4.098-4.86-6.008-7.285  c-2.97-3.77-7.416-5.933-12.196-5.933s-9.226,2.163-12.196,5.933c-37.501,47.601-73.436,58.354-92.529,60.364v-40.187  C151.276,61.979,198.256,15,256.002,15s104.726,46.979,104.726,104.726v40.233c-27.637-2.668-51.768-19.493-67.657-33.796  c-3.077-2.771-7.82-2.522-10.592,0.557c-2.771,3.078-2.522,7.82,0.557,10.592c27.625,24.867,57.083,38.011,85.192,38.011  c4.705,0,8.533,3.828,8.533,8.532v8.016c0,4.705-3.828,8.532-8.533,8.532c-1.708,0-3.355-0.502-4.762-1.451  c-2.158-1.457-4.917-1.69-7.288-0.616c-2.372,1.074-4.017,3.3-4.347,5.883c-6.141,48.094-47.338,84.361-95.829,84.361  s-89.688-36.268-95.829-84.361c-0.33-2.583-1.975-4.809-4.347-5.883c-2.371-1.074-5.13-0.841-7.288,0.616  C147.131,199.901,145.484,200.403,143.776,200.403z M143.776,256.516c-4.705,0-8.533-3.828-8.533-8.532s3.828-8.532,8.533-8.532  c4.705,0,8.532,3.828,8.532,8.532S148.48,256.516,143.776,256.516z M159.374,307.669c6.091-12.012,11.928-23.534,14.532-40.226  c7.699,8.357,16.632,15.53,26.5,21.225v28.178c0,3.597-2.275,6.826-5.663,8.036l-49.318,17.613  C149.048,328.036,154.281,317.712,159.374,307.669z M103.179,407.77c0-20.491,12.965-38.889,32.263-45.781l20.32-7.257  c4.653,17.619,13.852,33.655,26.872,46.691c10.734,10.747,23.513,18.897,37.537,24.051c-29.223,17.568-67.612,34.547-116.992,45.924  L103.179,407.77L103.179,407.77z"/>
<path d="M216.776,492.56c-3.806,1.731-7.727,3.405-11.656,4.977c-3.846,1.539-5.717,5.903-4.179,9.749  c1.173,2.933,3.989,4.717,6.966,4.717c0.927,0,1.87-0.173,2.783-0.538c4.144-1.657,8.28-3.424,12.295-5.25  c3.771-1.715,5.437-6.162,3.722-9.932C224.993,492.511,220.544,490.845,216.776,492.56z"/>
<g>
</g>
<g>
</g>
<g>
</g>
<g>
</g>
<g>
</g>
<g>
</g>
<g>
</g>
<g>
</g>
<g>
</g>
<g>
</g>
<g>
</g>
<g>
</g>
<g>
</g>
<g>
</g>
<g>
</g>
</svg>
